<?xml version="1.0" encoding="UTF-8" standalone="no"?>
<!DOCTYPE svg PUBLIC "-//W3C//DTD SVG 1.1//EN"
 "http://www.w3.org/Graphics/SVG/1.1/DTD/svg11.dtd">
<!-- Generated by graphviz version 14.1.2 (20260126.1125)
 -->
<!-- Title: clustermy_workflow Pages: 1 -->
<svg width="720pt" height="182pt"
 viewBox="0.00 0.00 720.00 182.00" xmlns="http://www.w3.org/2000/svg" xmlns:xlink="http://www.w3.org/1999/xlink">
<g id="graph0" class="graph" transform="scale(0.290547 0.290547) rotate(0) translate(4 623.25)">
<title>clustermy_workflow</title>
<polygon fill="white" stroke="none" points="-4,4 -4,-623.25 2474.09,-623.25 2474.09,4 -4,4"/>
<text xml:space="preserve" text-anchor="middle" x="1235.04" y="-7.95" font-family="Helvetica,sans-Serif" font-size="14.00">my_workflow: Workflow</text>
<g id="clust1" class="cluster">
<title>clustermy_workflowInputs</title>
<defs>
<linearGradient id="clust1_l_0" gradientUnits="userSpaceOnUse" x1="8" y1="-400.75" x2="540.99" y2="-400.75" >
<stop offset="0" style="stop-color:#a5a4a5;stop-opacity:1.;"/>
<stop offset="1" style="stop-color:#e4e3e4;stop-opacity:1.;"/>
</linearGradient>
</defs>
<polygon fill="url(#clust1_l_0)" stroke="#a5a4a5" points="8,-227.25 8,-574.25 540.99,-574.25 540.99,-227.25 8,-227.25"/>
<text xml:space="preserve" text-anchor="middle" x="274.5" y="-556.95" font-family="Helvetica,sans-Serif" font-size="14.00">Inputs</text>
</g>
<g id="clust2" class="cluster">
<title>clustermy_workflowOutputsWithInjection</title>
<defs>
<linearGradient id="clust2_l_1" gradientUnits="userSpaceOnUse" x1="2462.09" y1="-503.75" x2="2166.9" y2="-503.75" >
<stop offset="0" style="stop-color:#a5a4a5;stop-opacity:1.;"/>
<stop offset="1" style="stop-color:#e4e3e4;stop-opacity:1.;"/>
</linearGradient>
</defs>
<polygon fill="url(#clust2_l_1)" stroke="#a5a4a5" points="2166.9,-411.25 2166.9,-596.25 2462.09,-596.25 2462.09,-411.25 2166.9,-411.25"/>
<text xml:space="preserve" text-anchor="middle" x="2314.49" y="-578.95" font-family="Helvetica,sans-Serif" font-size="14.00">OutputsWithInjection</text>
</g>
<g id="clust3" class="cluster">
<title>clustermy_workflowprod_and_div</title>
<defs>
<linearGradient id="clust3_l_2" gradientUnits="userSpaceOnUse" x1="552.99" y1="-359.25" x2="973.9" y2="-359.25" >
<stop offset="0" style="stop-color:#bfe2bf;stop-opacity:1.;"/>
<stop offset="1" style="stop-color:#bfe2bf;stop-opacity:1.;"/>
</linearGradient>
</defs>
<polygon fill="url(#clust3_l_2)" stroke="#bfe2bf" stroke-width="2" points="552.99,-219.25 552.99,-499.25 973.9,-499.25 973.9,-219.25 552.99,-219.25"/>
<text xml:space="preserve" text-anchor="middle" x="763.44" y="-481.95" font-family="Helvetica,sans-Serif" font-size="14.00">prod_and_div: get_prod_and_div</text>
</g>
<g id="clust4" class="cluster">
<title>clustermy_workflowprod_and_divInputs</title>
<defs>
<linearGradient id="clust4_l_3" gradientUnits="userSpaceOnUse" x1="560.99" y1="-346.75" x2="736.99" y2="-346.75" >
<stop offset="0" style="stop-color:#a5a4a5;stop-opacity:1.;"/>
<stop offset="1" style="stop-color:#e4e3e4;stop-opacity:1.;"/>
</linearGradient>
</defs>
<polygon fill="url(#clust4_l_3)" stroke="#a5a4a5" points="560.99,-227.25 560.99,-466.25 736.99,-466.25 736.99,-227.25 560.99,-227.25"/>
<text xml:space="preserve" text-anchor="middle" x="648.99" y="-448.95" font-family="Helvetica,sans-Serif" font-size="14.00">Inputs</text>
</g>
<g id="clust5" class="cluster">
<title>clustermy_workflowprod_and_divOutputsWithInjection</title>
<defs>
<linearGradient id="clust5_l_4" gradientUnits="userSpaceOnUse" x1="965.9" y1="-319.75" x2="756.99" y2="-319.75" >
<stop offset="0" style="stop-color:#a5a4a5;stop-opacity:1.;"/>
<stop offset="1" style="stop-color:#e4e3e4;stop-opacity:1.;"/>
</linearGradient>
</defs>
<polygon fill="url(#clust5_l_4)" stroke="#a5a4a5" points="756.99,-227.25 756.99,-412.25 965.9,-412.25 965.9,-227.25 756.99,-227.25"/>
<text xml:space="preserve" text-anchor="middle" x="861.44" y="-394.95" font-family="Helvetica,sans-Serif" font-size="14.00">OutputsWithInjection</text>
</g>
<g id="clust6" class="cluster">
<title>clustermy_workflowinjected_GetItem_7639564196586158978</title>
<defs>
<linearGradient id="clust6_l_5" gradientUnits="userSpaceOnUse" x1="981.9" y1="-173.25" x2="1372.9" y2="-173.25" >
<stop offset="0" style="stop-color:#bfe2bf;stop-opacity:1.;"/>
<stop offset="1" style="stop-color:#bfe2bf;stop-opacity:1.;"/>
</linearGradient>
</defs>
<polygon fill="url(#clust6_l_5)" stroke="#bfe2bf" stroke-width="2" points="981.9,-33.25 981.9,-313.25 1372.9,-313.25 1372.9,-33.25 981.9,-33.25"/>
<text xml:space="preserve" text-anchor="middle" x="1177.4" y="-295.95" font-family="Helvetica,sans-Serif" font-size="14.00">injected_GetItem_7639564196586158978: GetItem</text>
</g>
<g id="clust7" class="cluster">
<title>clustermy_workflowinjected_GetItem_7639564196586158978Inputs</title>
<defs>
<linearGradient id="clust7_l_6" gradientUnits="userSpaceOnUse" x1="989.9" y1="-160.75" x2="1165.9" y2="-160.75" >
<stop offset="0" style="stop-color:#a5a4a5;stop-opacity:1.;"/>
<stop offset="1" style="stop-color:#e4e3e4;stop-opacity:1.;"/>
</linearGradient>
</defs>
<polygon fill="url(#clust7_l_6)" stroke="#a5a4a5" points="989.9,-41.25 989.9,-280.25 1165.9,-280.25 1165.9,-41.25 989.9,-41.25"/>
<text xml:space="preserve" text-anchor="middle" x="1077.9" y="-262.95" font-family="Helvetica,sans-Serif" font-size="14.00">Inputs</text>
</g>
<g id="clust8" class="cluster">
<title>clustermy_workflowinjected_GetItem_7639564196586158978OutputsWithInjection</title>
<defs>
<linearGradient id="clust8_l_7" gradientUnits="userSpaceOnUse" x1="1364.9" y1="-160.75" x2="1201.9" y2="-160.75" >
<stop offset="0" style="stop-color:#a5a4a5;stop-opacity:1.;"/>
<stop offset="1" style="stop-color:#e4e3e4;stop-opacity:1.;"/>
</linearGradient>
</defs>
<polygon fill="url(#clust8_l_7)" stroke="#a5a4a5" points="1201.9,-68.25 1201.9,-253.25 1364.9,-253.25 1364.9,-68.25 1201.9,-68.25"/>
<text xml:space="preserve" text-anchor="middle" x="1283.4" y="-235.95" font-family="Helvetica,sans-Serif" font-size="14.00">OutputsWithInjection</text>
</g>
<g id="clust9" class="cluster">
<title>clustermy_workflowinjected_GetItem_m6594344985725361000</title>
<defs>
<linearGradient id="clust9_l_8" gradientUnits="userSpaceOnUse" x1="981.9" y1="-461.25" x2="1372.9" y2="-461.25" >
<stop offset="0" style="stop-color:#bfe2bf;stop-opacity:1.;"/>
<stop offset="1" style="stop-color:#bfe2bf;stop-opacity:1.;"/>
</linearGradient>
</defs>
<polygon fill="url(#clust9_l_8)" stroke="#bfe2bf" stroke-width="2" points="981.9,-321.25 981.9,-601.25 1372.9,-601.25 1372.9,-321.25 981.9,-321.25"/>
<text xml:space="preserve" text-anchor="middle" x="1177.4" y="-583.95" font-family="Helvetica,sans-Serif" font-size="14.00">injected_GetItem_m6594344985725361000: GetItem</text>
</g>
<g id="clust10" class="cluster">
<title>clustermy_workflowinjected_GetItem_m6594344985725361000Inputs</title>
<defs>
<linearGradient id="clust10_l_9" gradientUnits="userSpaceOnUse" x1="989.9" y1="-448.75" x2="1165.9" y2="-448.75" >
<stop offset="0" style="stop-color:#a5a4a5;stop-opacity:1.;"/>
<stop offset="1" style="stop-color:#e4e3e4;stop-opacity:1.;"/>
</linearGradient>
</defs>
<polygon fill="url(#clust10_l_9)" stroke="#a5a4a5" points="989.9,-329.25 989.9,-568.25 1165.9,-568.25 1165.9,-329.25 989.9,-329.25"/>
<text xml:space="preserve" text-anchor="middle" x="1077.9" y="-550.95" font-family="Helvetica,sans-Serif" font-size="14.00">Inputs</text>
</g>
<g id="clust11" class="cluster">
<title>clustermy_workflowinjected_GetItem_m6594344985725361000OutputsWithInjection</title>
<defs>
<linearGradient id="clust11_l_10" gradientUnits="userSpaceOnUse" x1="1364.9" y1="-421.75" x2="1201.9" y2="-421.75" >
<stop offset="0" style="stop-color:#a5a4a5;stop-opacity:1.;"/>
<stop offset="1" style="stop-color:#e4e3e4;stop-opacity:1.;"/>
</linearGradient>
</defs>
<polygon fill="url(#clust11_l_10)" stroke="#a5a4a5" points="1201.9,-329.25 1201.9,-514.25 1364.9,-514.25 1364.9,-329.25 1201.9,-329.25"/>
<text xml:space="preserve" text-anchor="middle" x="1283.4" y="-496.95" font-family="Helvetica,sans-Serif" font-size="14.00">OutputsWithInjection</text>
</g>
<g id="clust12" class="cluster">
<title>clustermy_workflowtmp_sum</title>
<defs>
<linearGradient id="clust12_l_11" gradientUnits="userSpaceOnUse" x1="1380.9" y1="-407.25" x2="1763.9" y2="-407.25" >
<stop offset="0" style="stop-color:#bfe2bf;stop-opacity:1.;"/>
<stop offset="1" style="stop-color:#bfe2bf;stop-opacity:1.;"/>
</linearGradient>
</defs>
<polygon fill="url(#clust12_l_11)" stroke="#bfe2bf" stroke-width="2" points="1380.9,-267.25 1380.9,-547.25 1763.9,-547.25 1763.9,-267.25 1380.9,-267.25"/>
<text xml:space="preserve" text-anchor="middle" x="1572.4" y="-529.95" font-family="Helvetica,sans-Serif" font-size="14.00">tmp_sum: get_sum</text>
</g>
<g id="clust13" class="cluster">
<title>clustermy_workflowtmp_sumInputs</title>
<defs>
<linearGradient id="clust13_l_12" gradientUnits="userSpaceOnUse" x1="1388.9" y1="-394.75" x2="1564.9" y2="-394.75" >
<stop offset="0" style="stop-color:#a5a4a5;stop-opacity:1.;"/>
<stop offset="1" style="stop-color:#e4e3e4;stop-opacity:1.;"/>
</linearGradient>
</defs>
<polygon fill="url(#clust13_l_12)" stroke="#a5a4a5" points="1388.9,-275.25 1388.9,-514.25 1564.9,-514.25 1564.9,-275.25 1388.9,-275.25"/>
<text xml:space="preserve" text-anchor="middle" x="1476.9" y="-496.95" font-family="Helvetica,sans-Serif" font-size="14.00">Inputs</text>
</g>
<g id="clust14" class="cluster">
<title>clustermy_workflowtmp_sumOutputsWithInjection</title>
<defs>
<linearGradient id="clust14_l_13" gradientUnits="userSpaceOnUse" x1="1755.9" y1="-375.75" x2="1592.9" y2="-375.75" >
<stop offset="0" style="stop-color:#a5a4a5;stop-opacity:1.;"/>
<stop offset="1" style="stop-color:#e4e3e4;stop-opacity:1.;"/>
</linearGradient>
</defs>
<polygon fill="url(#clust14_l_13)" stroke="#a5a4a5" points="1592.9,-283.25 1592.9,-468.25 1755.9,-468.25 1755.9,-283.25 1592.9,-283.25"/>
<text xml:space="preserve" text-anchor="middle" x="1674.4" y="-450.95" font-family="Helvetica,sans-Serif" font-size="14.00">OutputsWithInjection</text>
</g>
<g id="clust15" class="cluster">
<title>clustermy_workflowsquare_result</title>
<defs>
<linearGradient id="clust15_l_14" gradientUnits="userSpaceOnUse" x1="1771.9" y1="-404.25" x2="2154.9" y2="-404.25" >
<stop offset="0" style="stop-color:#bfe2bf;stop-opacity:1.;"/>
<stop offset="1" style="stop-color:#bfe2bf;stop-opacity:1.;"/>
</linearGradient>
</defs>
<polygon fill="url(#clust15_l_14)" stroke="#bfe2bf" stroke-width="2" points="1771.9,-291.25 1771.9,-517.25 2154.9,-517.25 2154.9,-291.25 1771.9,-291.25"/>
<text xml:space="preserve" text-anchor="middle" x="1963.4" y="-499.95" font-family="Helvetica,sans-Serif" font-size="14.00">square_result: get_square</text>
</g>
<g id="clust16" class="cluster">
<title>clustermy_workflowsquare_resultInputs</title>
<defs>
<linearGradient id="clust16_l_15" gradientUnits="userSpaceOnUse" x1="1779.9" y1="-391.75" x2="1955.9" y2="-391.75" >
<stop offset="0" style="stop-color:#a5a4a5;stop-opacity:1.;"/>
<stop offset="1" style="stop-color:#e4e3e4;stop-opacity:1.;"/>
</linearGradient>
</defs>
<polygon fill="url(#clust16_l_15)" stroke="#a5a4a5" points="1779.9,-299.25 1779.9,-484.25 1955.9,-484.25 1955.9,-299.25 1779.9,-299.25"/>
<text xml:space="preserve" text-anchor="middle" x="1867.9" y="-466.95" font-family="Helvetica,sans-Serif" font-size="14.00">Inputs</text>
</g>
<g id="clust17" class="cluster">
<title>clustermy_workflowsquare_resultOutputsWithInjection</title>
<defs>
<linearGradient id="clust17_l_16" gradientUnits="userSpaceOnUse" x1="2146.9" y1="-391.75" x2="1983.9" y2="-391.75" >
<stop offset="0" style="stop-color:#a5a4a5;stop-opacity:1.;"/>
<stop offset="1" style="stop-color:#e4e3e4;stop-opacity:1.;"/>
</linearGradient>
</defs>
<polygon fill="url(#clust17_l_16)" stroke="#a5a4a5" points="1983.9,-299.25 1983.9,-484.25 2146.9,-484.25 2146.9,-299.25 1983.9,-299.25"/>
<text xml:space="preserve" text-anchor="middle" x="2065.4" y="-466.95" font-family="Helvetica,sans-Serif" font-size="14.00">OutputsWithInjection</text>
</g>
<!-- clustermy_workflowInputsrun -->
<g id="node1" class="node">
<title>clustermy_workflowInputsrun</title>
<polygon fill="#21bfd8" stroke="#21bfd8" points="289.5,-535.25 247.5,-535.25 247.5,-511.25 289.5,-511.25 301.5,-523.25 289.5,-535.25"/>
<text xml:space="preserve" text-anchor="middle" x="274.5" y="-518.58" font-family="Helvetica,sans-Serif" font-size="14.00">run</text>
</g>
<!-- clustermy_workflowOutputsWithInjectionran -->
<g id="node7" class="node">
<title>clustermy_workflowOutputsWithInjectionran</title>
<polygon fill="#21bfd8" stroke="#21bfd8" points="2329.49,-557.25 2287.49,-557.25 2287.49,-533.25 2329.49,-533.25 2341.49,-545.25 2329.49,-557.25"/>
<text xml:space="preserve" text-anchor="middle" x="2314.49" y="-540.58" font-family="Helvetica,sans-Serif" font-size="14.00">ran</text>
</g>
<!-- clustermy_workflowInputsrun&#45;&gt;clustermy_workflowOutputsWithInjectionran -->
<!-- clustermy_workflowInputsaccumulate_and_run -->
<g id="node2" class="node">
<title>clustermy_workflowInputsaccumulate_and_run</title>
<polygon fill="#21bfd8" stroke="#21bfd8" points="342.5,-319.25 194.5,-319.25 194.5,-295.25 342.5,-295.25 354.5,-307.25 342.5,-319.25"/>
<text xml:space="preserve" text-anchor="middle" x="274.5" y="-302.57" font-family="Helvetica,sans-Serif" font-size="14.00">accumulate_and_run</text>
</g>
<!-- clustermy_workflowInputsprod_and_div__x -->
<g id="node3" class="node">
<title>clustermy_workflowInputsprod_and_div__x</title>
<ellipse fill="#edb22c" stroke="#edb22c" cx="274.5" cy="-415.25" rx="91.19" ry="18"/>
<text xml:space="preserve" text-anchor="middle" x="274.5" y="-410.57" font-family="Helvetica,sans-Serif" font-size="14.00">prod_and_div__x</text>
</g>
<!-- clustermy_workflowprod_and_divInputsx -->
<g id="node12" class="node">
<title>clustermy_workflowprod_and_divInputsx</title>
<ellipse fill="#edb22c" stroke="#edb22c" cx="648.99" cy="-415.25" rx="27" ry="18"/>
<text xml:space="preserve" text-anchor="middle" x="648.99" y="-410.57" font-family="Helvetica,sans-Serif" font-size="14.00">x</text>
</g>
<!-- clustermy_workflowInputsprod_and_div__x&#45;&gt;clustermy_workflowprod_and_divInputsx -->
<g id="edge12" class="edge">
<title>clustermy_workflowInputsprod_and_div__x&#45;&gt;clustermy_workflowprod_and_divInputsx</title>
<path fill="none" stroke="#edb22c" d="M366.14,-415.25C405.25,-415.25 452.06,-415.25 496.21,-415.25"/>
<path fill="none" stroke="#edb22c" d="M496.21,-415.25C540.35,-415.25 581.81,-415.25 610.21,-415.25"/>
<polygon fill="#edb22c" stroke="#edb22c" points="610,-418.75 620,-415.25 610,-411.75 610,-418.75"/>
</g>
<!-- clustermy_workflowInputsprod_and_div__y -->
<g id="node4" class="node">
<title>clustermy_workflowInputsprod_and_div__y</title>
<ellipse fill="#edb22c" stroke="#edb22c" cx="274.5" cy="-361.25" rx="91.19" ry="18"/>
<text xml:space="preserve" text-anchor="middle" x="274.5" y="-356.57" font-family="Helvetica,sans-Serif" font-size="14.00">prod_and_div__y</text>
</g>
<!-- clustermy_workflowprod_and_divInputsy -->
<g id="node13" class="node">
<title>clustermy_workflowprod_and_divInputsy</title>
<ellipse fill="#edb22c" stroke="#edb22c" cx="648.99" cy="-361.25" rx="27" ry="18"/>
<text xml:space="preserve" text-anchor="middle" x="648.99" y="-356.57" font-family="Helvetica,sans-Serif" font-size="14.00">y</text>
</g>
<!-- clustermy_workflowInputsprod_and_div__y&#45;&gt;clustermy_workflowprod_and_divInputsy -->
<g id="edge13" class="edge">
<title>clustermy_workflowInputsprod_and_div__y&#45;&gt;clustermy_workflowprod_and_divInputsy</title>
<path fill="none" stroke="#edb22c" d="M366.14,-361.25C405.25,-361.25 452.06,-361.25 496.21,-361.25"/>
<path fill="none" stroke="#edb22c" d="M496.21,-361.25C540.35,-361.25 581.81,-361.25 610.21,-361.25"/>
<polygon fill="#edb22c" stroke="#edb22c" points="610,-364.75 620,-361.25 610,-357.75 610,-364.75"/>
</g>
<!-- clustermy_workflowInputsinjected_GetItem_7639564196586158978__item -->
<g id="node5" class="node">
<title>clustermy_workflowInputsinjected_GetItem_7639564196586158978__item</title>
<ellipse fill="#edb22c" stroke="#edb22c" cx="274.5" cy="-253.25" rx="249.03" ry="18"/>
<text xml:space="preserve" text-anchor="middle" x="274.5" y="-248.57" font-family="Helvetica,sans-Serif" font-size="14.00">injected_GetItem_7639564196586158978__item</text>
</g>
<!-- clustermy_workflowinjected_GetItem_7639564196586158978Inputsitem -->
<g id="node20" class="node">
<title>clustermy_workflowinjected_GetItem_7639564196586158978Inputsitem</title>
<ellipse fill="#edb22c" stroke="#edb22c" cx="1077.9" cy="-175.25" rx="32.79" ry="18"/>
<text xml:space="preserve" text-anchor="middle" x="1077.9" y="-170.57" font-family="Helvetica,sans-Serif" font-size="14.00">item</text>
</g>
<!-- clustermy_workflowInputsinjected_GetItem_7639564196586158978__item&#45;&gt;clustermy_workflowinjected_GetItem_7639564196586158978Inputsitem -->
<g id="edge14" class="edge">
<title>clustermy_workflowInputsinjected_GetItem_7639564196586158978__item&#45;&gt;clustermy_workflowinjected_GetItem_7639564196586158978Inputsitem</title>
<path fill="none" stroke="#edb22c" d="M413.42,-237.89C457.95,-233.05 507.55,-227.79 552.99,-223.25 616.23,-216.94 683.79,-210.51 748.65,-204.49"/>
<path fill="none" stroke="#edb22c" d="M748.65,-204.49C866.69,-193.55 975.81,-183.98 1033.67,-178.97"/>
<polygon fill="#edb22c" stroke="#edb22c" points="1033.82,-182.47 1043.48,-178.12 1033.21,-175.5 1033.82,-182.47"/>
</g>
<!-- clustermy_workflowInputsinjected_GetItem_m6594344985725361000__item -->
<g id="node6" class="node">
<title>clustermy_workflowInputsinjected_GetItem_m6594344985725361000__item</title>
<ellipse fill="#edb22c" stroke="#edb22c" cx="274.5" cy="-469.25" rx="258.5" ry="18"/>
<text xml:space="preserve" text-anchor="middle" x="274.5" y="-464.57" font-family="Helvetica,sans-Serif" font-size="14.00">injected_GetItem_m6594344985725361000__item</text>
</g>
<!-- clustermy_workflowinjected_GetItem_m6594344985725361000Inputsitem -->
<g id="node27" class="node">
<title>clustermy_workflowinjected_GetItem_m6594344985725361000Inputsitem</title>
<ellipse fill="#edb22c" stroke="#edb22c" cx="1077.9" cy="-517.25" rx="32.79" ry="18"/>
<text xml:space="preserve" text-anchor="middle" x="1077.9" y="-512.58" font-family="Helvetica,sans-Serif" font-size="14.00">item</text>
</g>
<!-- clustermy_workflowInputsinjected_GetItem_m6594344985725361000__item&#45;&gt;clustermy_workflowinjected_GetItem_m6594344985725361000Inputsitem -->
<g id="edge15" class="edge">
<title>clustermy_workflowInputsinjected_GetItem_m6594344985725361000__item&#45;&gt;clustermy_workflowinjected_GetItem_m6594344985725361000Inputsitem</title>
<path fill="none" stroke="#edb22c" d="M473.34,-481.1C567.28,-486.73 681.44,-493.56 785.07,-499.77"/>
<path fill="none" stroke="#edb22c" d="M785.07,-499.77C888.71,-505.98 981.83,-511.56 1033.72,-514.66"/>
<polygon fill="#edb22c" stroke="#edb22c" points="1033.27,-518.14 1043.46,-515.25 1033.69,-511.16 1033.27,-518.14"/>
</g>
<!-- clustermy_workflowOutputsWithInjectionfailed -->
<g id="node8" class="node">
<title>clustermy_workflowOutputsWithInjectionfailed</title>
<polygon fill="#21bfd8" stroke="#21bfd8" points="2329.62,-503.25 2287.37,-503.25 2287.37,-479.25 2329.62,-479.25 2341.62,-491.25 2329.62,-503.25"/>
<text xml:space="preserve" text-anchor="middle" x="2314.49" y="-486.57" font-family="Helvetica,sans-Serif" font-size="14.00">failed</text>
</g>
<!-- clustermy_workflowOutputsWithInjectionsquare_result__get_square -->
<g id="node9" class="node">
<title>clustermy_workflowOutputsWithInjectionsquare_result__get_square</title>
<ellipse fill="none" stroke="#edb22c" stroke-width="2" cx="2314.49" cy="-437.25" rx="139.59" ry="18"/>
<text xml:space="preserve" text-anchor="middle" x="2314.49" y="-432.57" font-family="Helvetica,sans-Serif" font-size="14.00">square_result__get_square</text>
</g>
<!-- clustermy_workflowprod_and_divInputsrun -->
<g id="node10" class="node">
<title>clustermy_workflowprod_and_divInputsrun</title>
<polygon fill="#21bfd8" stroke="#21bfd8" points="663.99,-265.25 621.99,-265.25 621.99,-241.25 663.99,-241.25 675.99,-253.25 663.99,-265.25"/>
<text xml:space="preserve" text-anchor="middle" x="648.99" y="-248.57" font-family="Helvetica,sans-Serif" font-size="14.00">run</text>
</g>
<!-- clustermy_workflowprod_and_divOutputsWithInjectionran -->
<g id="node14" class="node">
<title>clustermy_workflowprod_and_divOutputsWithInjectionran</title>
<polygon fill="#21bfd8" stroke="#21bfd8" points="876.44,-265.25 834.44,-265.25 834.44,-241.25 876.44,-241.25 888.44,-253.25 876.44,-265.25"/>
<text xml:space="preserve" text-anchor="middle" x="861.44" y="-248.57" font-family="Helvetica,sans-Serif" font-size="14.00">ran</text>
</g>
<!-- clustermy_workflowprod_and_divInputsrun&#45;&gt;clustermy_workflowprod_and_divOutputsWithInjectionran -->
<!-- clustermy_workflowprod_and_divInputsaccumulate_and_run -->
<g id="node11" class="node">
<title>clustermy_workflowprod_and_divInputsaccumulate_and_run</title>
<polygon fill="#21bfd8" stroke="#21bfd8" points="716.99,-319.25 568.99,-319.25 568.99,-295.25 716.99,-295.25 728.99,-307.25 716.99,-319.25"/>
<text xml:space="preserve" text-anchor="middle" x="648.99" y="-302.57" font-family="Helvetica,sans-Serif" font-size="14.00">accumulate_and_run</text>
</g>
<!-- clustermy_workflowprod_and_divOutputsWithInjectionfailed -->
<g id="node15" class="node">
<title>clustermy_workflowprod_and_divOutputsWithInjectionfailed</title>
<polygon fill="#21bfd8" stroke="#21bfd8" points="876.57,-319.25 834.32,-319.25 834.32,-295.25 876.57,-295.25 888.57,-307.25 876.57,-319.25"/>
<text xml:space="preserve" text-anchor="middle" x="861.44" y="-302.57" font-family="Helvetica,sans-Serif" font-size="14.00">failed</text>
</g>
<!-- clustermy_workflowprod_and_divOutputsWithInjectionget_prod_and_div -->
<g id="node16" class="node">
<title>clustermy_workflowprod_and_divOutputsWithInjectionget_prod_and_div</title>
<ellipse fill="#edb22c" stroke="#edb22c" cx="861.44" cy="-361.25" rx="96.45" ry="18"/>
<text xml:space="preserve" text-anchor="middle" x="861.44" y="-356.57" font-family="Helvetica,sans-Serif" font-size="14.00">get_prod_and_div</text>
</g>
<!-- clustermy_workflowinjected_GetItem_7639564196586158978Inputsobj -->
<g id="node19" class="node">
<title>clustermy_workflowinjected_GetItem_7639564196586158978Inputsobj</title>
<ellipse fill="#edb22c" stroke="#edb22c" cx="1077.9" cy="-229.25" rx="27" ry="18"/>
<text xml:space="preserve" text-anchor="middle" x="1077.9" y="-224.57" font-family="Helvetica,sans-Serif" font-size="14.00">obj</text>
</g>
<!-- clustermy_workflowprod_and_divOutputsWithInjectionget_prod_and_div&#45;&gt;clustermy_workflowinjected_GetItem_7639564196586158978Inputsobj -->
<g id="edge7" class="edge">
<title>clustermy_workflowprod_and_divOutputsWithInjectionget_prod_and_div&#45;&gt;clustermy_workflowinjected_GetItem_7639564196586158978Inputsobj</title>
<path fill="none" stroke="#edb22c" d="M937.17,-349.8C949.96,-346.01 962.72,-340.96 973.9,-334.25 978.49,-331.49 978.24,-329.15 981.9,-325.25 987.7,-319.06 993.76,-312.71 999.88,-306.36"/>
<path fill="none" stroke="#edb22c" d="M999.88,-306.36C1019.14,-286.4 1039.07,-266.47 1053.83,-251.87"/>
<polygon fill="#edb22c" stroke="#edb22c" points="1056.1,-254.55 1060.76,-245.04 1051.18,-249.57 1056.1,-254.55"/>
</g>
<!-- clustermy_workflowinjected_GetItem_m6594344985725361000Inputsobj -->
<g id="node26" class="node">
<title>clustermy_workflowinjected_GetItem_m6594344985725361000Inputsobj</title>
<ellipse fill="#edb22c" stroke="#edb22c" cx="1077.9" cy="-463.25" rx="27" ry="18"/>
<text xml:space="preserve" text-anchor="middle" x="1077.9" y="-458.57" font-family="Helvetica,sans-Serif" font-size="14.00">obj</text>
</g>
<!-- clustermy_workflowprod_and_divOutputsWithInjectionget_prod_and_div&#45;&gt;clustermy_workflowinjected_GetItem_m6594344985725361000Inputsobj -->
<g id="edge8" class="edge">
<title>clustermy_workflowprod_and_divOutputsWithInjectionget_prod_and_div&#45;&gt;clustermy_workflowinjected_GetItem_m6594344985725361000Inputsobj</title>
<path fill="none" stroke="#edb22c" d="M886.02,-378.89C904.12,-391.89 930.6,-409.79 958.08,-424.51"/>
<path fill="none" stroke="#edb22c" d="M958.08,-424.51C965.99,-428.75 973.99,-432.73 981.9,-436.25 1000.62,-444.58 1022.56,-451.02 1040.64,-455.52"/>
<polygon fill="#edb22c" stroke="#edb22c" points="1039.6,-458.87 1050.14,-457.78 1041.23,-452.06 1039.6,-458.87"/>
</g>
<!-- clustermy_workflowinjected_GetItem_7639564196586158978Inputsrun -->
<g id="node17" class="node">
<title>clustermy_workflowinjected_GetItem_7639564196586158978Inputsrun</title>
<polygon fill="#21bfd8" stroke="#21bfd8" points="1092.9,-79.25 1050.9,-79.25 1050.9,-55.25 1092.9,-55.25 1104.9,-67.25 1092.9,-79.25"/>
<text xml:space="preserve" text-anchor="middle" x="1077.9" y="-62.58" font-family="Helvetica,sans-Serif" font-size="14.00">run</text>
</g>
<!-- clustermy_workflowinjected_GetItem_7639564196586158978OutputsWithInjectionran -->
<g id="node21" class="node">
<title>clustermy_workflowinjected_GetItem_7639564196586158978OutputsWithInjectionran</title>
<polygon fill="#21bfd8" stroke="#21bfd8" points="1297.9,-106.25 1255.9,-106.25 1255.9,-82.25 1297.9,-82.25 1309.9,-94.25 1297.9,-106.25"/>
<text xml:space="preserve" text-anchor="middle" x="1282.9" y="-89.58" font-family="Helvetica,sans-Serif" font-size="14.00">ran</text>
</g>
<!-- clustermy_workflowinjected_GetItem_7639564196586158978Inputsrun&#45;&gt;clustermy_workflowinjected_GetItem_7639564196586158978OutputsWithInjectionran -->
<!-- clustermy_workflowinjected_GetItem_7639564196586158978Inputsaccumulate_and_run -->
<g id="node18" class="node">
<title>clustermy_workflowinjected_GetItem_7639564196586158978Inputsaccumulate_and_run</title>
<polygon fill="#21bfd8" stroke="#21bfd8" points="1145.9,-133.25 997.9,-133.25 997.9,-109.25 1145.9,-109.25 1157.9,-121.25 1145.9,-133.25"/>
<text xml:space="preserve" text-anchor="middle" x="1077.9" y="-116.58" font-family="Helvetica,sans-Serif" font-size="14.00">accumulate_and_run</text>
</g>
<!-- clustermy_workflowinjected_GetItem_7639564196586158978OutputsWithInjectionfailed -->
<g id="node22" class="node">
<title>clustermy_workflowinjected_GetItem_7639564196586158978OutputsWithInjectionfailed</title>
<polygon fill="#21bfd8" stroke="#21bfd8" points="1298.02,-160.25 1255.77,-160.25 1255.77,-136.25 1298.02,-136.25 1310.02,-148.25 1298.02,-160.25"/>
<text xml:space="preserve" text-anchor="middle" x="1282.9" y="-143.57" font-family="Helvetica,sans-Serif" font-size="14.00">failed</text>
</g>
<!-- clustermy_workflowinjected_GetItem_7639564196586158978OutputsWithInjectiongetitem -->
<g id="node23" class="node">
<title>clustermy_workflowinjected_GetItem_7639564196586158978OutputsWithInjectiongetitem</title>
<ellipse fill="#edb22c" stroke="#edb22c" cx="1282.9" cy="-202.25" rx="48.58" ry="18"/>
<text xml:space="preserve" text-anchor="middle" x="1282.9" y="-197.57" font-family="Helvetica,sans-Serif" font-size="14.00">getitem</text>
</g>
<!-- clustermy_workflowtmp_sumInputsx -->
<g id="node33" class="node">
<title>clustermy_workflowtmp_sumInputsx</title>
<ellipse fill="#edb22c" stroke="#edb22c" cx="1476.9" cy="-409.25" rx="27" ry="18"/>
<text xml:space="preserve" text-anchor="middle" x="1476.9" y="-404.57" font-family="Helvetica,sans-Serif" font-size="14.00">x</text>
</g>
<!-- clustermy_workflowinjected_GetItem_7639564196586158978OutputsWithInjectiongetitem&#45;&gt;clustermy_workflowtmp_sumInputsx -->
<g id="edge9" class="edge">
<title>clustermy_workflowinjected_GetItem_7639564196586158978OutputsWithInjectiongetitem&#45;&gt;clustermy_workflowtmp_sumInputsx</title>
<path fill="none" stroke="#edb22c" d="M1300.53,-219.32C1321.21,-241.65 1355.86,-282.95 1372.9,-325.25 1373.56,-326.9 1374.09,-328.51 1374.51,-330.07"/>
<path fill="none" stroke="#edb22c" d="M1374.51,-330.07C1380.07,-350.95 1365.26,-364.3 1380.9,-382.25 1395.11,-398.57 1418.41,-405.36 1438.37,-408.05"/>
<polygon fill="#edb22c" stroke="#edb22c" points="1437.84,-411.51 1448.14,-409.05 1438.55,-404.55 1437.84,-411.51"/>
</g>
<!-- clustermy_workflowinjected_GetItem_m6594344985725361000Inputsrun -->
<g id="node24" class="node">
<title>clustermy_workflowinjected_GetItem_m6594344985725361000Inputsrun</title>
<polygon fill="#21bfd8" stroke="#21bfd8" points="1092.9,-367.25 1050.9,-367.25 1050.9,-343.25 1092.9,-343.25 1104.9,-355.25 1092.9,-367.25"/>
<text xml:space="preserve" text-anchor="middle" x="1077.9" y="-350.57" font-family="Helvetica,sans-Serif" font-size="14.00">run</text>
</g>
<!-- clustermy_workflowinjected_GetItem_m6594344985725361000OutputsWithInjectionran -->
<g id="node28" class="node">
<title>clustermy_workflowinjected_GetItem_m6594344985725361000OutputsWithInjectionran</title>
<polygon fill="#21bfd8" stroke="#21bfd8" points="1297.9,-367.25 1255.9,-367.25 1255.9,-343.25 1297.9,-343.25 1309.9,-355.25 1297.9,-367.25"/>
<text xml:space="preserve" text-anchor="middle" x="1282.9" y="-350.57" font-family="Helvetica,sans-Serif" font-size="14.00">ran</text>
</g>
<!-- clustermy_workflowinjected_GetItem_m6594344985725361000Inputsrun&#45;&gt;clustermy_workflowinjected_GetItem_m6594344985725361000OutputsWithInjectionran -->
<!-- clustermy_workflowinjected_GetItem_m6594344985725361000Inputsaccumulate_and_run -->
<g id="node25" class="node">
<title>clustermy_workflowinjected_GetItem_m6594344985725361000Inputsaccumulate_and_run</title>
<polygon fill="#21bfd8" stroke="#21bfd8" points="1145.9,-421.25 997.9,-421.25 997.9,-397.25 1145.9,-397.25 1157.9,-409.25 1145.9,-421.25"/>
<text xml:space="preserve" text-anchor="middle" x="1077.9" y="-404.57" font-family="Helvetica,sans-Serif" font-size="14.00">accumulate_and_run</text>
</g>
<!-- clustermy_workflowinjected_GetItem_m6594344985725361000OutputsWithInjectionfailed -->
<g id="node29" class="node">
<title>clustermy_workflowinjected_GetItem_m6594344985725361000OutputsWithInjectionfailed</title>
<polygon fill="#21bfd8" stroke="#21bfd8" points="1298.02,-421.25 1255.77,-421.25 1255.77,-397.25 1298.02,-397.25 1310.02,-409.25 1298.02,-421.25"/>
<text xml:space="preserve" text-anchor="middle" x="1282.9" y="-404.57" font-family="Helvetica,sans-Serif" font-size="14.00">failed</text>
</g>
<!-- clustermy_workflowinjected_GetItem_m6594344985725361000OutputsWithInjectiongetitem -->
<g id="node30" class="node">
<title>clustermy_workflowinjected_GetItem_m6594344985725361000OutputsWithInjectiongetitem</title>
<ellipse fill="#edb22c" stroke="#edb22c" cx="1282.9" cy="-463.25" rx="48.58" ry="18"/>
<text xml:space="preserve" text-anchor="middle" x="1282.9" y="-458.57" font-family="Helvetica,sans-Serif" font-size="14.00">getitem</text>
</g>
<!-- clustermy_workflowtmp_sumInputsy -->
<g id="node34" class="node">
<title>clustermy_workflowtmp_sumInputsy</title>
<ellipse fill="#edb22c" stroke="#edb22c" cx="1476.9" cy="-463.25" rx="27" ry="18"/>
<text xml:space="preserve" text-anchor="middle" x="1476.9" y="-458.57" font-family="Helvetica,sans-Serif" font-size="14.00">y</text>
</g>
<!-- clustermy_workflowinjected_GetItem_m6594344985725361000OutputsWithInjectiongetitem&#45;&gt;clustermy_workflowtmp_sumInputsy -->
<g id="edge10" class="edge">
<title>clustermy_workflowinjected_GetItem_m6594344985725361000OutputsWithInjectiongetitem&#45;&gt;clustermy_workflowtmp_sumInputsy</title>
<path fill="none" stroke="#edb22c" d="M1331.85,-463.25C1348.28,-463.25 1367.23,-463.25 1385.88,-463.25"/>
<path fill="none" stroke="#edb22c" d="M1385.88,-463.25C1404.53,-463.25 1422.88,-463.25 1438.09,-463.25"/>
<polygon fill="#edb22c" stroke="#edb22c" points="1437.98,-466.75 1447.98,-463.25 1437.98,-459.75 1437.98,-466.75"/>
</g>
<!-- clustermy_workflowtmp_sumInputsrun -->
<g id="node31" class="node">
<title>clustermy_workflowtmp_sumInputsrun</title>
<polygon fill="#21bfd8" stroke="#21bfd8" points="1491.9,-313.25 1449.9,-313.25 1449.9,-289.25 1491.9,-289.25 1503.9,-301.25 1491.9,-313.25"/>
<text xml:space="preserve" text-anchor="middle" x="1476.9" y="-296.57" font-family="Helvetica,sans-Serif" font-size="14.00">run</text>
</g>
<!-- clustermy_workflowtmp_sumOutputsWithInjectionran -->
<g id="node35" class="node">
<title>clustermy_workflowtmp_sumOutputsWithInjectionran</title>
<polygon fill="#21bfd8" stroke="#21bfd8" points="1688.9,-321.25 1646.9,-321.25 1646.9,-297.25 1688.9,-297.25 1700.9,-309.25 1688.9,-321.25"/>
<text xml:space="preserve" text-anchor="middle" x="1673.9" y="-304.57" font-family="Helvetica,sans-Serif" font-size="14.00">ran</text>
</g>
<!-- clustermy_workflowtmp_sumInputsrun&#45;&gt;clustermy_workflowtmp_sumOutputsWithInjectionran -->
<!-- clustermy_workflowtmp_sumInputsaccumulate_and_run -->
<g id="node32" class="node">
<title>clustermy_workflowtmp_sumInputsaccumulate_and_run</title>
<polygon fill="#21bfd8" stroke="#21bfd8" points="1544.9,-367.25 1396.9,-367.25 1396.9,-343.25 1544.9,-343.25 1556.9,-355.25 1544.9,-367.25"/>
<text xml:space="preserve" text-anchor="middle" x="1476.9" y="-350.57" font-family="Helvetica,sans-Serif" font-size="14.00">accumulate_and_run</text>
</g>
<!-- clustermy_workflowtmp_sumOutputsWithInjectionfailed -->
<g id="node36" class="node">
<title>clustermy_workflowtmp_sumOutputsWithInjectionfailed</title>
<polygon fill="#21bfd8" stroke="#21bfd8" points="1689.02,-375.25 1646.77,-375.25 1646.77,-351.25 1689.02,-351.25 1701.02,-363.25 1689.02,-375.25"/>
<text xml:space="preserve" text-anchor="middle" x="1673.9" y="-358.57" font-family="Helvetica,sans-Serif" font-size="14.00">failed</text>
</g>
<!-- clustermy_workflowtmp_sumOutputsWithInjectionget_sum -->
<g id="node37" class="node">
<title>clustermy_workflowtmp_sumOutputsWithInjectionget_sum</title>
<ellipse fill="#edb22c" stroke="#edb22c" cx="1673.9" cy="-417.25" rx="52.79" ry="18"/>
<text xml:space="preserve" text-anchor="middle" x="1673.9" y="-412.57" font-family="Helvetica,sans-Serif" font-size="14.00">get_sum</text>
</g>
<!-- clustermy_workflowsquare_resultInputsx -->
<g id="node40" class="node">
<title>clustermy_workflowsquare_resultInputsx</title>
<ellipse fill="#edb22c" stroke="#edb22c" cx="1867.9" cy="-433.25" rx="27" ry="18"/>
<text xml:space="preserve" text-anchor="middle" x="1867.9" y="-428.57" font-family="Helvetica,sans-Serif" font-size="14.00">x</text>
</g>
<!-- clustermy_workflowtmp_sumOutputsWithInjectionget_sum&#45;&gt;clustermy_workflowsquare_resultInputsx -->
<g id="edge11" class="edge">
<title>clustermy_workflowtmp_sumOutputsWithInjectionget_sum&#45;&gt;clustermy_workflowsquare_resultInputsx</title>
<path fill="none" stroke="#edb22c" d="M1725.59,-421.47C1741.93,-422.84 1760.53,-424.39 1778.75,-425.9"/>
<path fill="none" stroke="#edb22c" d="M1778.75,-425.9C1796.97,-427.42 1814.81,-428.91 1829.62,-430.14"/>
<polygon fill="#edb22c" stroke="#edb22c" points="1828.96,-433.6 1839.22,-430.94 1829.54,-426.62 1828.96,-433.6"/>
</g>
<!-- clustermy_workflowsquare_resultInputsrun -->
<g id="node38" class="node">
<title>clustermy_workflowsquare_resultInputsrun</title>
<polygon fill="#21bfd8" stroke="#21bfd8" points="1882.9,-337.25 1840.9,-337.25 1840.9,-313.25 1882.9,-313.25 1894.9,-325.25 1882.9,-337.25"/>
<text xml:space="preserve" text-anchor="middle" x="1867.9" y="-320.57" font-family="Helvetica,sans-Serif" font-size="14.00">run</text>
</g>
<!-- clustermy_workflowsquare_resultOutputsWithInjectionran -->
<g id="node41" class="node">
<title>clustermy_workflowsquare_resultOutputsWithInjectionran</title>
<polygon fill="#21bfd8" stroke="#21bfd8" points="2079.9,-337.25 2037.9,-337.25 2037.9,-313.25 2079.9,-313.25 2091.9,-325.25 2079.9,-337.25"/>
<text xml:space="preserve" text-anchor="middle" x="2064.9" y="-320.57" font-family="Helvetica,sans-Serif" font-size="14.00">ran</text>
</g>
<!-- clustermy_workflowsquare_resultInputsrun&#45;&gt;clustermy_workflowsquare_resultOutputsWithInjectionran -->
<!-- clustermy_workflowsquare_resultInputsaccumulate_and_run -->
<g id="node39" class="node">
<title>clustermy_workflowsquare_resultInputsaccumulate_and_run</title>
<polygon fill="#21bfd8" stroke="#21bfd8" points="1935.9,-391.25 1787.9,-391.25 1787.9,-367.25 1935.9,-367.25 1947.9,-379.25 1935.9,-391.25"/>
<text xml:space="preserve" text-anchor="middle" x="1867.9" y="-374.57" font-family="Helvetica,sans-Serif" font-size="14.00">accumulate_and_run</text>
</g>
<!-- clustermy_workflowsquare_resultOutputsWithInjectionfailed -->
<g id="node42" class="node">
<title>clustermy_workflowsquare_resultOutputsWithInjectionfailed</title>
<polygon fill="#21bfd8" stroke="#21bfd8" points="2080.02,-391.25 2037.77,-391.25 2037.77,-367.25 2080.02,-367.25 2092.02,-379.25 2080.02,-391.25"/>
<text xml:space="preserve" text-anchor="middle" x="2064.9" y="-374.57" font-family="Helvetica,sans-Serif" font-size="14.00">failed</text>
</g>
<!-- clustermy_workflowsquare_resultOutputsWithInjectionget_square -->
<g id="node43" class="node">
<title>clustermy_workflowsquare_resultOutputsWithInjectionget_square</title>
<ellipse fill="none" stroke="#edb22c" stroke-width="2" cx="2064.9" cy="-433.25" rx="64.89" ry="18"/>
<text xml:space="preserve" text-anchor="middle" x="2064.9" y="-428.57" font-family="Helvetica,sans-Serif" font-size="14.00">get_square</text>
</g>
<!-- clustermy_workflowsquare_resultOutputsWithInjectionget_square&#45;&gt;clustermy_workflowOutputsWithInjectionsquare_result__get_square -->
<g id="edge16" class="edge">
<title>clustermy_workflowsquare_resultOutputsWithInjectionget_square&#45;&gt;clustermy_workflowOutputsWithInjectionsquare_result__get_square</title>
<path fill="none" stroke="#edb22c" d="M2129.98,-434.29C2135.36,-434.37 2140.93,-434.46 2146.64,-434.55"/>
<path fill="none" stroke="#edb22c" d="M2146.64,-434.55C2152.35,-434.65 2158.2,-434.74 2164.14,-434.84"/>
<polygon fill="#edb22c" stroke="#edb22c" points="2164.03,-438.34 2174.09,-435 2164.15,-431.34 2164.03,-438.34"/>
</g>
</g>
</svg>